<svg width="236" height="81" viewBox="0 0 236 81" fill="none" xmlns="http://www.w3.org/2000/svg">
<line x1="209.705" y1="14.7774" x2="147.777" y2="50.2948" stroke="#FF1616" stroke-width="7" stroke-linecap="round" stroke-linejoin="round"/>
<path d="M97.1538 31.5846L96.4488 32.397L95.9791 32.8033L95.0397 33.25L94.8985 33.6157C94.8985 33.6157 94.5226 33.9407 94.5697 34.1439C94.6168 34.3472 94.6167 34.7127 94.6167 34.7127C94.6167 34.7127 93.959 35.2408 93.677 35.4032C93.395 35.5656 93.0191 35.9313 93.0191 35.9313C93.0191 35.9313 92.7842 36.1752 92.6433 36.2564C92.5024 36.3374 92.2676 36.5813 92.0795 36.8251C91.8914 37.0689 91.7035 37.2312 91.6096 37.353C91.5157 37.4749 91.2336 37.7593 91.0926 38.2062C90.9516 38.6533 90.5756 39.1812 90.5756 39.1812L90.4814 39.3842C90.5284 40.075 90.5281 40.1968 90.6222 40.4407C90.716 40.6843 90.8101 40.6029 90.7158 41.1312C90.6218 41.6591 90.6217 41.8624 90.5277 42.1062C90.4337 42.3497 90.1517 42.7966 90.0579 43C89.9637 43.203 90.2455 43.5685 90.2455 43.5685C90.2455 43.5685 90.3864 44.0968 90.2923 44.2187C90.1983 44.3407 90.3391 44.5843 90.3391 44.5843C90.3391 44.5843 90.9026 44.8686 91.0906 45.0312C91.2784 45.1937 91.6072 45.4375 91.6541 45.5593C91.7012 45.6813 92.0766 46.2501 92.1235 46.3719C92.1705 46.4937 92.5461 46.9404 92.64 47.0625C92.7339 47.1845 93.2035 47.6314 93.2035 47.6314C93.2035 47.6314 93.8139 48.0373 93.9549 48.1999C94.0957 48.3623 94.5185 48.4436 94.6591 48.5654C94.8001 48.6872 95.1288 48.6464 95.3166 48.7686C95.5045 48.8905 95.8802 48.6872 96.0682 48.7686C96.256 48.8499 96.773 48.6874 96.9138 48.6062C97.0547 48.525 97.3835 48.2407 97.6184 48.3624C97.8531 48.484 97.994 48.3624 98.1821 48.403C98.3696 48.4436 98.6516 48.2407 98.8394 48.2407C99.0275 48.2407 99.497 48.0781 99.6379 48.0781C99.779 48.0781 100.249 47.8341 100.437 47.8341C100.624 47.8341 100.859 47.672 101.094 47.7531C101.329 47.8341 101.235 47.5908 101.658 47.7125C102.081 47.8341 102.221 47.7125 102.362 47.8341C102.503 47.9561 102.691 47.8345 102.832 47.9969C102.973 48.1592 103.208 48.281 103.255 48.4436C103.301 48.6063 103.583 48.7689 103.583 48.7689L103.865 48.8093C103.865 48.8093 104.241 48.5656 104.335 48.7283C104.429 48.8907 104.851 48.8503 104.851 48.8503L105.274 49.2564L105.415 49.4188C105.415 49.4188 105.697 50.0689 105.649 50.3126C105.602 50.5563 105.602 51.0844 105.461 51.2062C105.32 51.3282 105.226 51.8563 105.226 51.8563C105.226 51.8563 105.038 52.0188 105.461 52.3438C105.884 52.6691 106.165 52.9532 106.306 53.1154C106.447 53.2781 106.823 53.7251 106.869 54.0094C106.916 54.2937 107.01 54.4561 107.198 54.8218C107.386 55.1875 107.621 55.2281 107.667 55.6345C107.714 56.0406 107.808 56.0408 107.761 56.3249C107.714 56.6094 107.573 56.65 107.714 56.853C107.855 57.0562 108.042 57.4219 107.996 57.5438C107.949 57.6656 107.854 58.1937 107.854 58.1937L107.76 58.4375L107.338 59.1284L107.056 59.4938C106.962 59.778 106.774 60.0625 106.82 60.4688C106.867 60.875 106.586 60.8749 106.961 61.281C107.337 61.6874 107.524 62.1343 107.759 62.5C107.994 62.8655 108.135 63.2312 108.181 63.4748C108.228 63.7187 108.416 63.8001 108.51 64.1249C108.604 64.45 108.651 64.6123 108.651 64.8155C108.651 65.0185 108.603 65.5468 108.698 65.6687C108.791 65.7905 108.838 66.1564 108.885 66.3188C108.932 66.4814 108.744 66.522 109.026 66.8065C109.308 67.0907 109.495 67.2532 109.683 67.4564C109.871 67.6597 109.824 67.5783 109.965 67.8627C110.106 68.147 110.293 68.3098 110.341 68.5533C110.387 68.7969 110.434 69.4063 110.575 69.6907C110.716 69.9752 110.903 70.2596 110.903 70.2596C110.903 70.2596 111.42 70.5439 111.608 70.5033C111.796 70.4627 112.172 70.0974 112.454 70.219C112.736 70.3408 112.97 70.219 113.205 70.219C113.44 70.219 113.675 69.9752 113.91 69.9752C114.145 69.9752 114.473 69.6501 114.662 69.7315C114.849 69.8126 115.084 69.6499 115.319 69.4469C115.554 69.244 115.695 69.0816 116.118 68.7565C116.541 68.4315 116.494 68.4313 116.775 68.2282C117.057 68.025 117.34 67.5781 117.668 67.4969C117.997 67.4157 118.091 67.1316 118.185 66.9284C118.279 66.7251 118.326 66.6033 118.467 66.4407C118.608 66.2784 118.514 66.4818 118.749 65.9534C118.984 65.4251 119.266 65.2222 119.501 65.1002C119.736 64.9784 119.877 64.7347 120.018 64.6939C120.159 64.6531 120.394 64.8157 120.3 64.4501C120.206 64.0846 120.3 63.5565 120.206 63.4346C120.112 63.3124 119.971 63.7187 120.019 63.1092C120.066 62.5001 120.583 61.8906 120.583 61.8906C120.583 61.8906 121.287 61.1188 121.522 60.997C121.757 60.8751 121.804 60.7533 122.133 60.5907C122.462 60.4284 123.167 60.0221 123.167 59.8189C123.167 59.6157 123.449 59.0876 123.449 58.9656C123.449 58.8437 123.449 58.7219 123.355 58.0312C123.262 57.3408 123.449 57.5031 123.168 56.8531C122.886 56.2032 122.839 55.3906 122.652 55.1876C122.464 54.9843 122.558 54.456 122.558 54.2938C122.558 54.1313 122.887 53.725 123.028 53.5626C123.169 53.4 123.78 52.7499 123.78 52.7499C123.78 52.7499 124.719 51.8157 125.048 51.369C125.377 50.9219 125.706 50.5158 125.941 50.3533C126.176 50.1909 126.74 49.8249 127.069 49.4188C127.398 49.0127 128.055 48.2409 128.103 48.1187C128.149 47.9971 128.525 47.5908 128.525 47.5908C128.525 47.5908 129.042 47.0625 129.136 46.7782C129.23 46.4938 129.7 44.9094 129.606 44.9907C129.513 45.0721 128.949 45.1531 128.761 45.1937C128.573 45.2345 129.043 45.3968 127.68 45.3157C126.319 45.2343 125.614 45.4375 125.614 45.4375C125.191 45.3561 124.862 45.7624 124.721 45.1937C124.581 44.6251 124.487 44.3001 124.205 43.8938C123.923 43.4875 123.735 43.3251 123.313 42.7968C122.891 42.2688 122.937 42.5123 122.562 42.1064C122.186 41.7001 122.092 41.8218 121.857 41.2938C121.623 40.7657 121.435 40.969 121.153 40.2376C120.872 39.5061 120.684 39.4249 120.543 39.0188C120.402 38.6127 120.215 38.4905 120.121 38.125C120.027 37.7593 118.947 35.8907 118.806 35.7687C118.665 35.647 118.431 34.9967 118.478 35.1187C118.525 35.2406 119.182 35.6468 119.182 35.6468C119.182 35.6468 119.558 35.5248 119.699 35.5248C119.84 35.5248 120.403 35.9719 120.403 36.1342C120.403 36.2968 121.39 37.0688 121.624 37.6375C121.859 38.2062 122.141 38.6125 122.187 38.7749C122.234 38.9374 122.704 39.5875 122.892 39.8313C123.079 40.0752 123.69 40.5625 123.783 40.8063C123.877 41.0502 124.77 41.8626 124.77 42.3907C124.769 42.9188 125.192 43.6094 125.239 43.7718C125.286 43.9342 126.131 44.1377 126.131 44.1377L127.258 43.8938C127.258 43.8938 128.949 42.9593 129.137 42.9593C129.325 42.9593 130.829 42.3499 130.829 42.3499C130.829 42.3499 131.439 41.8626 131.862 41.5783C132.285 41.2939 132.755 40.766 132.849 40.522C132.943 40.2781 133.131 40.2377 133.507 39.8718C133.882 39.5062 134.399 39.1407 134.071 38.8968C133.742 38.6532 133.554 38.7344 133.084 38.3281C132.615 37.922 132.662 38.0032 132.333 37.4749C132.004 36.947 132.38 36.3375 131.675 36.947C130.971 37.5563 131.253 37.7188 130.548 37.8409C129.844 37.9626 129.561 38.3689 129.233 37.9626C128.904 37.5563 128.576 37.8001 128.387 37.1906C128.2 36.5813 128.059 36.5405 128.012 36.297C127.965 36.0532 128.012 36.0532 127.637 35.4437C127.261 34.8343 127.543 33.8999 127.778 34.4281C128.013 34.9562 128.388 35.0374 128.999 35.4031C129.609 35.7686 129.891 36.0532 130.455 36.0938C131.018 36.1342 131.488 36.0938 131.582 36.1749C131.676 36.2563 131.77 36.1344 132.005 36.2155C132.24 36.2969 132.333 36.0938 132.427 36.4185C132.521 36.7436 133.038 36.7842 133.272 36.9872C133.507 37.1903 133.507 37.1093 134.118 37.1903C134.729 37.2717 135.574 37.2717 135.574 37.2717L136.466 37.2309L137.5 37.312C137.5 37.312 138.252 37.6777 138.439 37.6777C138.627 37.6777 138.674 38.1247 139.143 38.3684C139.613 38.6122 139.707 38.6527 139.989 38.9371C140.271 39.2216 140.223 39.3434 140.599 39.6277C140.975 39.9123 141.586 39.5873 141.68 39.4656C141.773 39.3436 142.243 39.1405 142.149 39.4656C142.055 39.7905 142.619 39.6685 142.478 40.4406C142.336 41.2122 142.242 41.0092 142.477 41.5374C142.712 42.0656 143.745 43.6905 143.792 44.178C143.839 44.6655 144.12 44.5031 144.167 44.9501C144.214 45.3969 144.496 45.5593 144.495 45.8844C144.495 46.2094 144.824 46.2905 144.871 46.5345C144.918 46.7783 145.435 46.5749 145.576 46.5345C145.717 46.4937 146.374 45.9656 146.374 45.9656C146.374 45.9656 146.657 45.8846 146.609 45.4781C146.562 45.0722 146.61 45.1532 146.61 44.5439C146.61 43.9345 146.328 43.9345 146.469 43.3254C146.61 42.7161 146.986 42.3502 147.08 42.0659C147.174 41.7817 147.55 41.2942 147.738 41.2534C147.926 41.2128 148.959 40.7661 149.195 40.4814C149.429 40.1972 149.805 39.8721 150.181 39.5472C150.557 39.2224 151.215 38.8161 151.356 38.9379C151.496 39.0597 151.45 39.0191 151.685 39.0191C151.919 39.0191 152.342 39.1818 152.671 39.2224C153 39.263 153.657 39.9535 153.798 40.3192C153.939 40.6849 153.845 40.6035 154.361 41.1318C154.878 41.6597 155.348 41.3347 155.347 41.9848C155.347 42.6349 155.347 42.5941 155.582 42.838C155.817 43.0818 156.099 42.3911 156.38 42.4725C156.662 42.5539 156.709 42.3912 156.944 43.0412C157.178 43.6913 157.319 43.6913 157.366 44.3413C157.413 44.9912 157.319 44.3819 157.319 44.9098C157.319 45.4381 157.271 45.4787 157.366 45.966C157.459 46.4539 157.788 46.6163 157.741 46.6976C157.741 46.6976 158.023 46.007 157.929 45.5193C157.836 45.032 157.929 44.3414 158.164 44.1384C158.399 43.935 158.634 43.7321 158.822 44.2602C159.01 44.7882 159.104 44.3821 159.526 44.9914C159.949 45.6009 160.325 45.4787 160.371 45.7632C160.418 46.0476 160.654 46.0884 160.982 46.3319C161.311 46.5757 161.592 46.2915 161.968 46.0476C162.344 45.8038 163.378 44.91 163.425 44.5443C163.472 44.1789 163.895 44.2599 163.143 43.3259C162.392 42.3915 162.392 42.0664 161.594 41.4977C160.796 40.9289 160.326 40.8883 160.937 40.157C161.548 39.4257 161.83 38.9383 162.206 39.1416C162.582 39.3446 163.239 39.3038 163.238 40.1166C163.238 40.929 163.05 41.8227 163.708 40.8477C164.366 39.8727 164.695 39.304 164.507 39.4668C164.319 39.6293 164.93 39.1418 164.93 39.1418C164.93 39.1418 164.977 38.7761 165.776 38.6137C166.574 38.4509 166.809 38.3698 167.091 38.248C167.373 38.126 168.171 37.3134 168.312 36.9479C168.453 36.5823 168.829 35.9323 168.736 35.6481C168.642 35.3634 168.172 33.9825 168.078 34.0229C167.985 34.0637 168.032 34.0637 167.421 33.495C166.811 32.9263 166.388 32.52 166.294 32.2761C166.201 32.0323 165.966 31.9917 166.247 31.6668C166.53 31.3419 166.671 31.3825 166.718 31.0981C166.764 30.8138 167.14 30.57 166.436 30.7732C165.731 30.9763 166.248 30.8546 165.637 30.814C165.027 30.7732 163.43 31.0982 164.229 30.2453C165.027 29.3921 165.262 28.8642 165.403 28.8642C165.544 28.8642 166.249 28.1734 166.295 28.8234C166.342 29.4733 166.624 29.3107 166.671 29.717C166.718 30.1233 167.657 29.2703 167.657 29.2703C167.657 29.2703 167.986 29.3515 168.221 29.5546C168.456 29.7576 168.455 30.4077 168.455 30.4077C168.455 30.4077 168.268 30.2045 168.784 30.5296C169.301 30.8548 169.864 30.692 169.864 31.3827C169.864 32.0733 169.864 32.1141 170.193 32.2765C170.522 32.439 170.85 32.3579 171.132 32.1547C171.414 31.9517 171.884 31.2203 171.884 31.2203C171.884 31.2203 171.931 30.9359 171.18 30.5296C170.428 30.1235 169.959 29.8392 169.677 29.636C169.395 29.4329 169.49 28.8236 169.771 28.5796C170.054 28.3357 170.194 28.2139 170.1 27.889C170.006 27.5638 170.241 27.3201 170.946 27.3607C171.65 27.4015 171.791 27.3203 171.791 27.3203C171.791 27.3203 171.933 27.4013 171.933 27.1577C171.933 26.914 172.825 25.7764 172.59 25.7764C172.355 25.7764 172.638 25.4921 172.497 25.0452C172.356 24.5982 172.967 23.9078 172.45 23.5827C171.934 23.2577 171.793 23.095 171.464 22.6077C171.136 22.12 171.182 22.039 169.961 21.917C168.74 21.7951 168.176 22.1608 167.895 21.8359C167.613 21.5109 167.472 22.3232 167.284 21.3482C167.097 20.3732 167.567 19.7231 167.567 19.7231C167.567 19.7231 168.318 19.317 168.506 19.0326C168.694 18.7481 169.446 18.6263 170.057 18.8295C170.667 19.0326 171.559 18.992 172.311 19.1142C173.063 19.2358 173.015 19.6421 173.391 19.1142C173.767 18.5857 173.392 18.3422 173.674 18.0578C173.956 17.7733 174.284 17.3264 174.519 17.6107C174.754 17.8953 175.224 18.1794 175.6 17.8138C175.976 17.4483 176.117 17.4077 176.117 17.4077L176.304 17.5703C176.304 17.5703 176.727 17.3669 176.727 17.7324C176.726 18.0982 177.149 18.5045 176.914 18.7888C176.679 19.0734 176.351 19.0326 176.351 19.7232C176.35 20.4141 176.35 20.2921 176.866 20.861C177.383 21.4295 177.712 20.942 177.806 21.5515C177.9 22.1609 177.993 22.0392 178.51 22.4453C179.027 22.8514 178.932 22.8514 179.308 23.0953C179.684 23.3391 179.872 23.583 179.872 23.1767C179.872 22.7704 179.919 22.5673 179.872 22.2017C179.825 21.8362 180.248 21.5515 179.966 20.9422C179.685 20.3329 179.92 20.3735 179.356 19.9266C178.793 19.4799 178.417 20.008 178.229 19.3579C178.042 18.7079 179.122 18.4235 179.404 18.3423C179.686 18.2612 180.108 17.7735 180.202 18.0986C180.296 18.4235 179.497 19.6017 180.86 18.3423C182.222 17.083 181.612 17.6111 181.612 17.6111C181.612 17.6111 182.316 17.5299 182.457 17.6111C182.598 17.6925 182.974 17.2454 182.833 17.2862C182.692 17.327 181.33 16.6361 181.33 16.6361L180.344 16.1488C180.344 16.1488 180.673 15.9456 180.908 15.9863C181.143 16.027 181.19 15.5801 181.425 15.5393C181.66 15.4987 183.256 15.8239 183.585 15.9864C183.914 16.1488 185.088 16.1894 184.947 16.1082C184.806 16.0268 184.055 15.5395 184.008 15.3768C183.961 15.2144 182.317 14.8893 181.801 14.9299C181.284 14.9704 180.814 15.0922 180.392 14.9704C179.969 14.8485 179.358 14.5235 179.03 14.5235C178.701 14.5235 174.568 13.8329 174.38 13.8735C174.192 13.9141 173.91 14.6859 173.769 14.564C173.628 14.4422 173.393 14.442 172.735 14.2796C172.078 14.1171 171.186 13.9951 170.011 13.9141C168.837 13.8328 168.039 13.9953 167.71 13.6702C167.382 13.3453 166.677 13.4672 165.879 13.4264C165.08 13.3859 164.141 13.4264 163.718 13.4264C163.295 13.4264 162.309 13.3859 162.074 13.3451C161.839 13.3043 161.558 13.0201 161.276 12.9796C160.994 12.9388 161.041 12.8578 160.477 12.7766C159.914 12.6952 159.961 12.1672 159.773 12.6139C159.585 13.061 159.679 12.939 159.397 13.1014C159.115 13.2641 158.833 13.5889 158.645 13.5889C158.458 13.5889 157.706 13.6295 157.565 13.5483C157.424 13.4671 157.189 13.3859 156.719 13.3859C156.25 13.3859 156.25 13.4263 155.639 13.3451C155.028 13.2639 154.559 13.3043 153.995 13.0608C153.432 12.817 153.432 12.6545 152.962 12.6951C152.493 12.7359 152.493 12.6139 151.835 12.6139C151.177 12.6139 150.379 12.939 149.956 12.9796C149.533 13.0202 148.594 12.9388 148.265 12.8169C147.936 12.6951 147.842 12.4108 146.621 12.5325C145.4 12.6545 144.695 12.6545 144.93 12.3294C145.165 12.0045 145.447 11.6795 145.588 11.6389C145.729 11.5982 146.058 11.3952 145.823 11.314C145.588 11.2326 145.353 11.1109 144.79 11.0701C144.226 11.0295 144.273 11.2326 143.427 11.1513C142.582 11.0701 143.897 10.8671 142.16 10.9077C140.422 10.9485 139.999 11.0701 139.811 11.0701C139.623 11.0701 139.388 10.7452 138.919 11.2325C138.449 11.72 137.791 12.0043 136.852 12.0449C135.912 12.0857 135.865 11.9637 134.973 12.2479C134.08 12.5322 133.517 12.1667 133.704 12.8167C133.892 13.4666 134.127 13.7104 134.127 13.8323C134.127 13.9541 133.704 14.7667 133.187 14.2792C132.671 13.7917 131.732 11.8823 132.154 13.1823C132.576 14.4822 133.515 14.9293 132.623 15.1323C131.731 15.3354 131.825 15.0511 131.684 14.9697C131.543 14.8885 131.684 14.3198 131.637 13.9947C131.59 13.6698 131.496 13.4666 131.309 13.3041C131.121 13.1415 131.168 12.8979 130.792 12.8166C130.416 12.7354 130.745 12.5728 130.135 12.5728C129.524 12.5728 129.008 12.2477 129.148 12.9791C129.289 13.7102 129.43 13.2229 129.805 13.9135C130.181 14.604 130.885 14.1165 130.369 14.604C129.852 15.0915 128.49 14.9291 128.161 14.726C127.832 14.5228 127.926 14.8072 127.315 14.4416C126.705 14.0759 126.893 13.7914 126.189 14.0759C125.484 14.3603 125.249 14.8884 124.967 14.6852C124.685 14.482 124.028 14.9695 123.793 14.726C123.558 14.4821 122.618 14.4821 122.431 14.726C122.243 14.9696 121.679 14.929 120.881 15.2541C120.082 15.579 120.317 15.2945 119.33 15.9852C118.343 16.6758 117.78 17.2445 117.451 16.7976C117.123 16.3509 115.338 15.5789 116.043 15.4569C116.747 15.3351 117.076 15.0914 117.452 15.3757C117.827 15.66 118.438 15.579 118.532 15.3757C118.626 15.1725 119.049 14.9694 118.485 14.7258C117.922 14.4819 117.875 14.6444 116.982 14.3601C116.09 14.0756 116.982 14.157 115.761 13.9944C114.54 13.832 114.023 13.7507 113.694 13.6695C113.366 13.5883 112.896 13.6695 112.427 13.6289C111.957 13.5883 111.628 13.5071 111.205 13.5477C110.783 13.5883 110.548 13.5071 109.984 13.8727C109.42 14.2384 108.997 14.4008 108.621 14.6851C108.246 14.9694 107.259 15.5383 106.977 15.7415C106.695 15.9446 105.709 16.5945 105.615 16.8383C105.521 17.0822 105.708 17.2852 105.333 17.4477C104.957 17.6101 104.581 17.6101 104.299 17.6507C104.017 17.6913 104.299 17.285 104.017 17.6913C103.735 18.0976 103.829 19.5601 104.064 19.3569C104.298 19.1536 104.158 18.5039 105.191 19.1134C106.224 19.7226 106.882 19.6413 106.835 20.2101C106.787 20.7788 107.539 20.7382 107.633 20.8602C107.727 20.9818 108.196 20.6976 108.196 20.6976C108.196 20.6976 109.23 20.1289 109.23 19.8446C109.23 19.5601 109.888 18.9102 109.888 18.9102C109.888 18.9102 109.418 18.7071 109.418 18.3009C109.418 17.8948 109.56 17.7726 109.653 17.3663C109.747 16.9602 109.137 17.3665 110.546 16.5943C111.955 15.8226 112.049 16.3509 112.049 16.3509C112.049 16.3509 112.237 16.5133 112.002 16.757C111.767 17.0008 111.344 17.6509 111.25 17.732C111.156 17.8134 111.673 18.4633 111.907 18.4633C112.142 18.4633 112.612 18.3007 112.894 18.3413C113.176 18.3821 113.645 18.2197 113.786 18.3009C113.927 18.3821 114.256 18.6258 114.021 18.829C113.786 19.032 113.269 19.2757 112.894 19.1947C112.518 19.1136 111.954 18.5445 112.283 19.3571C112.611 20.1697 112.235 20.3727 111.954 20.3321C111.672 20.2915 111.061 19.8854 111.155 20.4947C111.249 21.1039 110.544 21.5101 110.403 21.5101C110.262 21.5101 109.981 21.4695 109.981 21.4695C109.981 21.4695 109.558 21.4287 109.323 21.4287C109.088 21.4287 108.618 21.6318 108.478 21.7944C108.336 21.9568 108.149 21.8352 107.914 21.8352C107.679 21.8352 107.914 21.5913 107.444 21.5101C106.975 21.4289 106.693 21.3477 106.411 21.5101C106.129 21.6726 105.707 21.7538 105.519 21.6319C105.331 21.5101 105.613 21.2255 105.237 21.3883C104.861 21.5507 104.579 21.9976 104.438 22.0384C104.297 22.0788 104.861 22.0384 104.297 22.0788C103.734 22.1196 103.499 22.2416 103.217 22.3227C102.935 22.4041 103.311 22.8914 102.794 23.0538C102.277 23.2163 102.653 22.8508 102.136 23.2163C101.619 23.5821 101.525 23.907 101.338 23.9476C101.15 23.9884 101.197 24.0694 100.774 24.11C100.351 24.1506 100.398 24.1913 100.163 24.2319C99.9282 24.2725 100.21 24.3539 99.6935 24.2725C99.1766 24.1912 98.8009 24.3539 98.8948 24.5163C98.9886 24.6787 100.726 25.1256 99.4113 25.085C98.0962 25.0444 98.5189 25.2475 98.8006 25.4099C99.0824 25.5723 99.223 25.7348 99.3641 25.7756C99.5052 25.8162 99.7395 26.3039 99.7395 26.3039C99.7395 26.3039 100.115 26.2631 99.8805 26.5475C99.6457 26.832 99.9743 26.9132 99.7392 27.2789C99.5043 27.6445 99.5044 27.4007 99.3166 27.4819C99.1288 27.563 98.8467 27.8476 98.3299 27.6038C97.8133 27.3599 97.4379 27.2381 96.8272 27.1976C96.2166 27.1568 96.6392 27.0758 96.2165 27.3599C95.7936 27.6445 95.6996 27.9694 95.7467 28.3349C95.7935 28.7004 95.8403 29.1881 95.6991 29.4319C95.5582 29.6756 95.5581 29.9194 95.6517 30.2851C95.7457 30.6506 96.0276 30.8134 96.0276 30.8134C96.0276 30.8134 96.6851 30.8944 96.8259 30.9352C96.9668 30.9758 97.2487 30.854 97.6243 31.0569C98.0001 31.2601 98.3759 31.3415 98.6107 31.0977C98.8455 30.854 99.7851 30.5696 100.067 30.3259C100.349 30.0821 100.537 30.001 100.396 29.7572C100.255 29.5133 100.678 28.904 100.913 28.7822C101.148 28.6604 101.665 28.5383 101.665 28.5383L102.229 27.8072C102.229 27.8072 102.698 27.3601 102.933 27.4009C103.168 27.4415 104.483 27.848 104.389 27.3199C104.296 26.7916 104.484 26.6291 104.624 26.8322C104.765 27.0353 105.141 26.954 105.141 26.954C105.141 26.954 105.329 26.873 105.47 26.9948C105.61 27.1165 105.798 27.645 106.08 27.7666C106.362 27.8886 106.597 28.0104 106.785 28.0915C106.972 28.1729 107.16 28.0915 107.536 28.3759C107.912 28.6604 108.287 28.823 108.334 28.9447C108.381 29.0665 108.71 29.351 108.71 29.351C108.71 29.351 109.039 29.4322 108.945 29.5948C108.851 29.7572 108.381 30.2449 108.146 30.326C107.911 30.4072 107.301 30.2445 107.535 30.4072C107.77 30.5696 108.099 30.7728 108.24 30.6508C108.381 30.529 109.273 29.7164 109.273 29.7164C109.273 29.7164 109.226 29.7571 109.273 29.5132C109.321 29.2697 109.274 28.9853 109.509 29.1071C109.743 29.2291 109.884 29.3916 109.978 29.2291C110.072 29.0665 110.166 29.1479 109.931 29.0261C109.696 28.9041 109.133 28.2135 108.851 28.1729C108.569 28.1321 107.865 27.7258 107.865 27.7258C107.865 27.7258 107.724 27.604 107.395 27.2791C107.066 26.954 106.973 27.0353 106.878 26.7508C106.785 26.4665 106.503 26.1009 107.02 26.1821C107.537 26.2633 107.865 26.5476 108.335 26.7914C108.804 27.0353 108.711 27.1163 109.133 27.3602C109.556 27.604 109.603 27.8478 109.931 27.8072C110.26 27.7666 110.636 27.9697 110.636 28.3354C110.636 28.701 110.729 29.1071 110.823 29.1885C110.917 29.2699 111.199 29.4324 111.293 29.5948C111.387 29.7573 111.575 30.1635 111.715 30.326C111.856 30.4884 111.997 30.6104 112.138 30.8137C112.279 31.0167 112.326 30.7729 112.466 30.8543C112.607 30.9355 112.795 30.8947 112.795 30.7323C112.795 30.5698 112.842 30.2854 112.842 30.2854C112.842 30.2854 113.5 30.1229 113.312 30.0415C113.124 29.9603 112.561 29.4728 112.608 29.3104C112.655 29.1479 112.608 28.823 112.843 28.8637C113.078 28.9041 113.312 29.2698 113.829 28.9447C114.346 28.6196 114.957 28.4572 114.769 28.9447C114.581 29.4322 114.816 29.5133 114.768 30.0415C114.721 30.5698 114.956 30.4072 115.285 30.6917C115.614 30.9761 115.848 31.0169 116.083 31.098C116.318 31.1794 116.694 31.1388 117.07 31.1794C117.446 31.22 117.68 31.0574 118.009 31.1388C118.338 31.22 119.089 31.098 119.23 31.1794C119.371 31.2606 119.935 31.0169 119.982 31.3012C120.029 31.5857 120.217 31.2606 120.076 31.9105C119.935 32.5605 119.746 33.0074 119.746 33.0074C119.229 33.8605 119.042 34.0638 118.807 34.1044C118.572 34.145 118.431 34.2668 118.008 34.2262C117.586 34.1854 117.069 34.2262 116.458 34.1044C115.848 33.9824 114.72 34.2262 114.251 33.9823C113.781 33.7387 113.124 33.9417 112.841 33.6575C112.56 33.373 112.09 33.4136 111.902 33.2512C111.715 33.0887 111.621 32.642 111.621 33.292C111.62 33.9421 111.198 33.9825 111.104 34.3076C111.009 34.6324 111.244 34.47 110.728 34.4294C110.211 34.3886 110.07 34.6324 109.319 34.1451C108.567 33.6576 108.192 33.6576 107.816 33.4544C107.44 33.2511 107.064 33.8199 106.689 33.1701C106.313 32.52 105.796 33.0481 105.75 32.52C105.703 31.9917 105.75 32.0326 105.797 31.7076C105.844 31.3825 106.361 31.0983 106.126 30.9764C105.891 30.8546 106.079 30.6514 105.75 30.7734C105.421 30.8952 104.952 30.9358 104.576 31.0576C104.2 31.1796 105.421 31.0576 103.589 31.1796C101.757 31.3015 101.241 31.4639 101.241 31.4639C101.241 31.4639 101.1 31.3827 100.865 31.5451C100.63 31.7076 100.301 31.9514 99.9723 31.8296C99.6437 31.7075 99.4556 31.7482 99.1739 31.7889C98.892 31.8296 98.7044 31.5859 98.3755 31.7889C98.0466 31.9918 97.6709 32.0732 97.5299 31.9918C97.3838 31.9088 97.1481 31.5839 97.1481 31.5839L97.1538 31.5846Z" fill="#B2B2B2"/>
<path d="M128.571 58.3156C128.431 58.7626 127.914 59.4124 127.914 59.4124L126.974 59.8188C126.974 59.8188 126.646 60.0627 126.457 60.1033C126.27 60.1438 125.8 60.3473 125.8 60.3473C125.8 60.3473 125.377 60.2659 125.518 60.6314C125.659 60.997 125.706 61.444 125.659 61.5657C125.612 61.6877 125.612 61.9315 125.612 62.2565C125.612 62.5814 125.471 62.9875 125.236 63.0687C125.002 63.1502 124.767 63.2314 124.813 63.5158C124.861 63.8002 124.861 64.6532 124.861 64.6532L125.472 65.4656C125.472 65.4656 125.659 65.3437 126.035 65.3437C126.411 65.3436 126.787 65.0595 126.787 65.0595C126.787 65.0595 127.21 65.1403 127.162 64.6938C127.116 64.2467 127.351 63.7188 127.303 63.5968C127.257 63.475 127.726 62.9467 127.726 62.825C127.726 62.703 128.196 62.1347 128.196 61.9313C128.196 61.7282 128.525 61.4031 128.572 61.1597C128.619 60.9157 128.666 60.3472 128.759 60.1847C128.854 60.0223 128.901 59.8597 128.901 59.6972C128.901 59.5348 128.901 59.2098 128.901 59.2098L128.567 58.3147L128.571 58.3156Z" fill="#B2B2B2"/>
<path d="M165.359 63.8007C165.218 63.9629 165.124 65.7101 165.03 65.9131C164.936 66.1162 164.748 67.1726 164.842 67.4161C164.935 67.6601 165.076 68.5537 164.982 68.8381C164.888 69.1224 165.029 70.0162 164.794 69.9756C164.559 69.9348 164.465 70.0164 164.465 70.138C164.465 70.26 164.794 70.5035 164.794 70.5035C164.794 70.5035 165.358 70.5037 165.592 70.4629C165.827 70.4223 166.297 70.2191 166.673 70.2191C167.049 70.2191 167.284 69.9752 167.612 69.9752C167.941 69.9752 168.646 69.7723 168.834 69.8534C169.021 69.9344 169.303 69.3659 169.632 69.4879C169.961 69.6097 170.666 69.2034 170.994 69.2034C171.323 69.2034 171.464 68.7564 171.84 68.8379C172.216 68.9192 172.92 68.6755 173.249 68.797C173.577 68.9192 174.095 68.3909 174.329 68.797C174.564 69.2034 175.269 69.3659 175.269 69.5689C175.269 69.772 175.221 70.219 175.221 70.219L175.785 70.1782C175.785 70.1782 176.677 69.6907 176.818 69.6907C176.959 69.6907 177.288 69.2846 177.288 69.4879C177.288 69.6907 177.006 70.138 176.912 70.3409C176.818 70.5441 177.006 70.7879 177.006 70.7879C177.006 70.7879 177.476 70.991 177.288 71.3565C177.1 71.7221 177.334 71.6411 177.287 71.9252C177.24 72.2097 177.287 72.0876 177.475 72.2501C177.663 72.4127 177.992 72.6975 178.273 72.6565C178.556 72.6157 178.649 72.3723 178.884 72.4941C179.119 72.6159 179.588 72.5347 179.729 72.6973C179.871 72.8596 178.837 73.2659 180.622 72.5755C182.407 71.8846 182.594 71.7221 182.829 71.4783C183.065 71.2346 183.347 70.991 183.534 70.8283C183.722 70.6659 183.582 70.7065 184.145 70.3408C184.709 69.9753 184.709 70.1378 185.226 69.447C185.743 68.7567 186.119 68.5128 186.213 68.3908C186.307 68.2688 186.495 68.2284 186.542 67.7405C186.589 67.2532 186.965 66.8063 186.965 66.6438C186.965 66.4816 187.106 66.2379 187.059 65.9533C187.012 65.6688 187.247 65.2629 186.965 64.8566C186.683 64.4502 187.106 64.2881 186.683 64.1251C186.261 63.9627 185.979 64.0441 185.885 63.7596C185.791 63.4752 185.415 63.5158 185.275 62.744C185.134 61.9722 184.57 61.8907 184.57 61.8907C184.57 61.8907 184.007 61.6876 184.148 61.6066C184.289 61.5252 184.336 60.9563 184.289 60.7938C184.242 60.6314 184.242 60.2657 184.102 60.0222C183.961 59.7782 183.867 59.4535 183.726 59.1689C183.585 58.8846 183.351 58.8032 183.257 58.4783C183.163 58.1534 183.022 58.0312 182.975 57.9502C182.928 57.869 182.834 57.4629 182.74 57.9094C182.646 58.3563 182.458 59.2093 182.458 59.2093C182.458 59.2093 182.082 59.9002 181.941 60.1033C181.8 60.3061 181.659 60.8344 181.424 60.7937C181.189 60.753 181.048 60.9971 180.86 60.9561C180.672 60.9153 180.391 60.9969 180.25 60.8751C180.109 60.753 179.733 60.4282 179.545 60.3874C179.357 60.3469 179.217 60.0221 179.076 60.0221C178.934 60.0221 178.7 59.7374 178.747 59.575C178.794 59.4126 178.841 59.0471 178.888 58.8844C178.935 58.722 179.217 58.3561 179.217 58.3561C179.217 58.3561 179.217 58.1125 178.982 58.1125C178.747 58.1125 178.7 58.1125 178.184 58.0717C177.667 58.0309 177.526 57.9905 177.338 57.9905C177.151 57.9905 177.526 57.9093 177.009 58.0311C176.493 58.1533 176.258 58.4782 175.929 58.7626C175.6 59.0469 175.882 58.9655 175.6 59.0469C175.318 59.1283 175.366 58.8437 175.177 59.2907C174.989 59.7376 175.271 59.8593 175.13 59.9407C174.989 60.0221 174.003 59.6564 174.003 59.6564C174.003 59.6564 174.238 59.6156 174.05 59.4126C173.862 59.2093 173.674 58.9252 173.393 59.0471C173.111 59.1689 172.876 59.2503 172.688 59.4534C172.5 59.6564 172.5 59.8189 172.359 59.9813C172.218 60.1437 171.842 60.1437 171.795 60.3064C171.748 60.469 171.748 60.8751 171.608 60.9157C171.467 60.9565 171.42 60.7536 171.279 60.7128C171.138 60.6722 171.185 60.3472 171.091 60.5504C170.997 60.7534 170.903 60.7127 170.762 61.0377C170.621 61.3628 170.574 61.6472 170.433 61.6878C170.292 61.7286 170.433 61.7691 170.01 61.9723C169.588 62.1753 169.494 62.1753 168.883 62.4192C168.273 62.663 168.414 62.663 167.991 62.7035C167.568 62.7443 167.474 62.8661 167.192 62.9067C166.91 62.9473 166.723 62.9877 166.44 63.2316C166.159 63.4754 165.924 63.5565 165.736 63.5973C165.548 63.6381 165.369 63.7976 165.369 63.7976L165.359 63.8007Z" fill="#B2B2B2"/>
<path d="M168.129 47.7532C167.941 47.9973 167.33 48.7283 167.095 48.7691C166.86 48.8095 166.625 49.0129 166.438 48.9721C166.25 48.9314 165.827 48.9722 165.686 49.5003C165.545 50.0284 165.31 50.3128 165.169 50.272C165.028 50.2314 165.404 51.0438 164.605 50.7191C163.807 50.3941 164.089 51.0036 163.995 51.1662C163.901 51.3285 164.135 51.7755 164.182 51.9379C164.23 52.1004 164.37 52.3848 164.558 52.6282C164.746 52.8721 164.887 53.1563 165.216 53.0754C165.544 52.9938 166.577 53.0753 166.577 53.0753C166.577 53.0753 166.954 53.1971 167.188 53.1971C167.423 53.1971 167.47 53.1159 167.611 53.1159C167.751 53.1159 168.033 52.7094 167.987 52.669C167.94 52.628 167.799 52.5064 168.081 52.2625C168.363 52.0187 168.691 51.9376 168.739 51.6532C168.786 51.3689 168.645 51.3689 168.786 51.2061C168.927 51.0437 169.255 51.0846 169.162 50.9219C169.067 50.7594 169.255 50.8 169.067 50.4748C168.88 50.15 168.645 50.028 168.833 49.6217C169.021 49.2156 169.209 49.1342 169.162 48.8906C169.115 48.6466 169.397 48.5655 169.068 48.2811C168.739 47.997 168.598 47.9156 168.363 47.8341L168.132 47.7511L168.129 47.7532Z" fill="#B2B2B2"/>
<path d="M177.339 51.816C177.528 51.7754 178.185 51.3692 178.232 52.1005C178.279 52.8316 178.325 52.6284 178.607 53.0347C178.889 53.4409 179.076 53.5631 179.405 53.3599C179.734 53.1565 180.11 53.1565 180.204 52.7913C180.298 52.4256 180.298 52.4256 180.58 52.4256C180.862 52.4256 180.956 52.385 181.097 52.5478C181.238 52.7099 181.331 52.5475 181.942 52.8319C182.553 53.1164 183.069 53.0348 183.445 53.3195C183.821 53.6037 184.009 53.5635 184.525 53.7258C185.042 53.8882 184.807 53.6446 185.276 54.0914C185.746 54.5381 185.559 54.6599 185.793 54.8632C186.028 55.0662 186.216 54.7006 186.122 55.188C186.027 55.6755 185.37 55.188 186.356 55.8784C187.342 56.5693 187.483 56.6913 187.812 56.8942C188.141 57.0974 188.375 57.3412 188.094 57.3412C187.811 57.3412 186.919 57.3412 186.826 57.2192C186.732 57.0973 186.309 57.0159 186.027 56.7317C185.746 56.4476 185.135 56.2442 184.995 56.0005C184.853 55.7565 184.666 55.6755 184.431 55.6754C184.196 55.6754 183.961 55.9191 183.632 56.2035C183.303 56.4877 183.445 56.0412 183.022 56.1629C182.598 56.2848 182.129 56.122 181.894 55.9596C181.659 55.7972 181.707 55.5535 181.331 55.6753C180.955 55.7971 180.721 55.7159 180.862 55.4723C181.003 55.2283 180.909 54.9034 180.909 54.9034C180.909 54.9034 181.05 54.4972 180.721 54.4161C180.392 54.3351 180.393 54.0506 180.064 53.969C179.735 53.888 179.218 53.6848 179.218 53.6848C179.218 53.6848 179.172 53.6848 179.03 53.6441C178.89 53.6034 178.89 53.6034 178.514 53.5223C178.138 53.4409 177.856 53.5219 177.669 53.3191C177.48 53.116 177.575 52.8316 177.575 52.8316C177.575 52.8316 178.326 52.9128 177.575 52.4253L176.824 51.938C176.824 51.938 176.917 51.8972 176.87 51.816C176.822 51.733 177.34 51.8142 177.34 51.8142L177.339 51.816Z" fill="#B2B2B2"/>
<path d="M156.197 48.4431C156.197 48.4431 156.432 48.6464 156.807 48.6056C157.183 48.5648 157.464 49.2555 157.7 49.4991C157.934 49.7429 158.076 49.8647 158.592 50.1491C159.109 50.4334 159.062 49.9053 159.766 50.7584C160.471 51.6112 160.142 51.0834 160.471 51.6112C160.799 52.1398 160.987 52.4239 161.175 52.5461C161.363 52.6679 161.504 52.9926 161.551 53.1146C161.598 53.2364 161.926 53.6018 161.926 53.7238C161.926 53.8457 162.02 54.1707 161.739 54.455C161.457 54.7394 161.222 54.78 161.222 54.78C161.222 54.78 160.658 54.5363 160.47 54.2926C160.282 54.049 160.048 53.8458 159.719 53.3585C159.39 52.8709 159.014 52.3428 158.827 52.0992C158.639 51.8552 158.357 51.6114 158.216 51.3679C158.075 51.1239 157.699 50.393 157.512 50.3117C157.324 50.2303 157.277 49.9868 156.948 49.7024C156.619 49.418 156.666 49.1743 156.525 49.0119C156.385 48.8495 156.056 48.4835 156.056 48.4835L156.194 48.4438L156.197 48.4431Z" fill="#B2B2B2"/>
<path d="M64.8208 80.1302C64.4919 79.9678 63.7873 79.6834 63.5526 79.521C63.3178 79.3586 62.6133 78.4646 62.6133 78.4646L62.0964 77.6115C62.0964 77.6115 61.486 76.9617 61.6269 76.718C61.7678 76.4742 62.0498 76.3117 62.0498 76.1899C62.0498 76.0681 62.3316 75.7428 62.0966 75.6212C61.8618 75.4993 61.8618 75.4588 61.7207 75.0932C61.5799 74.7277 61.5799 74.4023 61.3921 74.3213C61.2041 74.2403 61.0632 73.7121 60.8754 73.6715C60.6876 73.6307 60.4996 73.3465 60.4996 73.3465L60.2179 70.0561C60.2179 70.0561 60.1239 68.5532 60.0302 68.228C59.9361 67.9032 60.1711 67.2127 59.9362 66.6032C59.7014 65.994 59.9834 65.2628 59.8424 65.019C59.7015 64.7752 59.9364 64.0848 59.7955 63.435C59.6547 62.7851 60.3594 61.9725 59.7957 61.7289C59.232 61.485 59.6549 61.1195 59.1851 61.1195C58.7155 61.1196 58.3866 60.9164 57.9638 60.6324C57.541 60.348 56.7423 59.8198 56.5076 59.6166C56.2728 59.4138 55.5211 58.8856 55.2863 58.7232C55.0515 58.5608 54.8166 57.8701 54.6288 57.6669C54.441 57.4641 54.3471 56.8548 54.0652 56.4892C53.7833 56.1238 53.4076 55.5145 53.3135 55.3925C53.2196 55.2707 52.1862 54.2147 52.1862 54.2147L52.2802 53.5648C52.2802 53.5648 52.9848 53.199 52.8909 53.0772C52.797 52.9552 52.9381 52.8332 52.609 52.5898C52.2801 52.3458 52.3271 51.899 52.609 51.6961C52.891 51.4926 53.3137 50.8427 53.3137 50.8427L54.0183 49.8273C54.0183 49.8273 54.5823 49.2988 54.5823 48.9333C54.5823 48.5678 55.3808 48.3241 54.9111 47.9991C54.4413 47.674 54.6763 47.3897 54.5353 47.1459C54.3942 46.9022 54.4883 46.7398 54.9112 46.4959C55.334 46.2521 56.0856 45.3584 56.0856 45.3584C56.0856 45.3584 56.6493 45.2364 56.7902 45.2364C56.9311 45.2364 57.1662 43.9362 57.5889 44.7892C58.0117 45.6423 58.1526 45.1954 58.0117 45.8047C57.8706 46.414 58.1995 46.2924 58.3873 46.1299C58.5752 45.9671 58.2932 46.2518 58.6691 45.5202C59.0448 44.7891 58.9042 44.5455 59.139 44.7487C59.3737 44.9518 59.4676 44.9924 59.8905 45.1142C60.3131 45.236 60.4541 45.1952 60.5948 45.439C60.7356 45.6828 60.6889 45.3578 61.4874 45.4797C62.2859 45.6016 63.4133 45.2357 63.2724 45.6418C63.1315 46.048 62.8496 45.6012 63.5072 46.048C64.1647 46.495 64.2588 46.576 64.6345 46.6573C65.0102 46.7385 65.3391 46.6979 65.9029 47.1853C66.4666 47.6725 66.6075 47.7133 66.7483 47.9567C66.8892 48.2007 67.124 48.0381 67.3589 48.2817C67.5937 48.5257 67.9226 48.5257 68.2513 48.5256C68.58 48.5256 68.2514 48.2816 68.7681 48.6068C69.285 48.9316 69.6606 48.972 69.8954 49.622C70.1301 50.2724 70.5999 50.2314 70.224 50.8815C69.8483 51.5316 69.0967 51.816 69.4254 51.7753C69.7541 51.7345 70.365 51.4906 70.5528 51.5314C70.7407 51.5718 70.8346 51.4095 71.1165 51.5313C71.3985 51.6531 71.4455 51.3689 71.3985 51.6531C71.3513 51.9376 71.3513 51.6531 71.3513 51.9376C71.3513 52.2218 71.2574 51.6531 71.8211 51.7751C72.3848 51.8968 72.0559 51.5311 72.7135 52.0592C73.3713 52.5874 73.3713 52.425 73.6058 52.7092C73.8408 52.9933 74.0756 52.5469 74.2167 52.6686C74.3578 52.7902 74.7804 52.7089 75.2032 52.7903C75.626 52.8713 75.3441 52.5466 76.0019 52.912C76.6593 53.2774 77.3171 53.1555 77.458 53.4805C77.5988 53.8054 77.9749 53.6835 78.1625 53.8867C78.3501 54.0899 78.4442 53.8053 78.6323 54.0899C78.8201 54.3739 79.384 54.2927 79.2898 54.5769C79.1957 54.8615 79.4305 54.6989 79.3365 55.105C79.2428 55.5116 78.9136 56.1615 78.6321 56.3238C78.3501 56.4865 78.3503 56.6895 78.1623 56.8926C77.9744 57.096 78.0214 56.6895 77.7864 57.2582C77.5515 57.8271 77.5985 57.9083 77.4106 58.4362C77.2227 58.9642 77.3637 58.4363 77.2227 58.9643C77.0818 59.4924 77.1757 59.8175 77.0348 60.4269C76.8939 61.0361 76.9408 61.0362 76.8469 61.4831C76.7529 61.93 77.0817 61.2802 76.6588 62.2142C76.2361 63.1488 76.1891 63.1078 76.0482 63.5143C75.9071 63.9207 76.0952 63.5955 75.5784 63.8394C75.0617 64.0834 75.3436 64.0018 74.7328 64.1645C74.1223 64.327 73.3706 64.4899 73.1358 64.5303C72.901 64.5708 71.9614 64.8147 72.2433 65.3019C72.5252 65.7896 72.5252 65.8708 72.2432 66.4803C71.9612 67.0894 71.5386 67.2929 71.5386 67.5769C71.5385 67.8612 71.3505 68.1455 71.3037 68.3487C71.2565 68.5519 71.7263 68.1454 71.1628 68.7549C70.5991 69.3643 70.5521 69.2019 70.364 69.5675C70.1762 69.933 70.364 69.6486 70.1762 69.933C69.9883 70.2173 69.5185 70.3392 69.5185 70.3392C69.5185 70.3392 69.5653 70.5424 69.3775 70.4612C69.1894 70.3802 69.2366 70.5018 68.5318 70.3393C67.8273 70.1769 67.7334 69.771 67.6394 70.0551C67.5455 70.3394 67.6864 70.5021 68.1092 70.7863C68.5318 71.0707 69.2365 71.1517 69.0485 71.4363C68.8606 71.7208 68.8606 71.7208 68.7197 71.8832C68.5786 72.0458 68.9076 71.9238 68.5786 72.0458C68.2499 72.1677 68.0618 72.696 67.921 72.696C67.7801 72.696 67.686 72.8991 67.4981 72.8179C67.3103 72.7365 66.8408 72.4523 66.7466 72.6147C66.6527 72.777 66.4647 72.4115 66.5116 72.9802C66.5587 73.5489 66.6526 73.8739 66.4176 73.9959C66.1828 74.1178 65.6189 73.996 65.6189 73.996L65.525 73.7928L65.1963 73.8741C65.1963 73.8741 65.0554 74.3616 65.2902 74.4427C65.525 74.5239 65.478 74.605 65.7128 74.8488C65.9477 75.0926 65.8068 75.5394 65.8068 75.5394C65.8068 75.5394 65.8068 75.6614 65.572 75.8645C65.3372 76.0676 65.2431 76.2302 65.1961 76.352C65.1489 76.4738 64.8672 77.0021 65.29 76.9613C65.7126 76.9205 66.0417 76.7174 66.0417 77.3675C66.0416 78.0174 66.2295 77.8551 65.9947 78.3018C65.7596 78.7487 65.5718 78.7893 65.5248 79.1954C65.478 79.6016 65.5719 79.6422 65.6658 79.8861C65.7597 80.1299 65.9947 80.0078 65.7597 80.1299C65.526 80.2454 64.8227 80.1246 64.8227 80.1246L64.8208 80.1302Z" fill="#B2B2B2"/>
<path d="M52.6959 47.0616L52.3674 46.6555C52.3674 46.6555 52.2266 46.4115 51.9916 46.3711C51.7567 46.3306 51.2401 45.8024 51.2401 45.8024C51.2401 45.8024 51.0054 45.6399 51.0055 45.3556C51.0056 45.0712 50.8177 44.6245 50.9587 44.137C51.0999 43.6497 51.147 43.0402 51.1001 42.8775C51.053 42.7151 51.3349 42.6745 51.0063 42.5119C50.6775 42.3494 50.0199 42.3088 49.5972 42.3088C49.1746 42.3088 48.6577 42.4309 48.5637 42.4713C48.4698 42.5119 49.0808 41.2526 49.1747 41.0496C49.2687 40.8465 49.6918 39.9526 49.6918 39.8309C49.6918 39.7089 49.8327 39.6683 49.551 39.506C49.2694 39.3434 48.7996 39.2622 48.5177 39.384C48.2359 39.506 48.283 39.2216 48.0481 39.7089C47.8132 40.1966 47.578 40.7247 47.2961 40.8059C47.0144 40.8873 46.4506 41.131 46.4506 41.131C46.4506 41.131 45.7462 41.0904 45.5112 41.0498C45.2764 41.0092 44.2902 40.5623 44.1024 40.278C43.9147 39.9936 43.821 39.3841 43.8211 39.1C43.8211 38.8155 44.3379 37.9626 44.291 37.7593C44.2441 37.5563 44.8082 36.7437 44.761 36.6217C44.7139 36.4999 44.8551 36.0936 44.996 35.9311C45.1369 35.7687 45.8417 35.5655 46.0295 35.403C46.2174 35.2404 46.5463 35.0375 46.875 34.9561C47.2037 34.8747 47.4859 34.7937 47.7206 34.7937C47.9554 34.7937 48.5661 34.3468 48.6599 34.7937C48.7539 35.2404 49.1767 35.0779 49.4114 35.1185C49.6462 35.1593 49.6933 35.3624 50.0691 34.8343C50.445 34.306 50.8207 34.1435 50.8207 34.2654C50.8206 34.3874 51.4313 34.2249 51.5252 34.3467C51.619 34.4686 51.8071 34.2653 52.1357 34.5092C52.4645 34.753 52.934 34.7936 52.887 34.9153C52.84 35.0371 53.0748 35.0371 53.0748 35.1591C53.0747 35.2809 53.2629 34.8747 53.2627 35.6058C53.2624 36.3372 53.4971 36.784 53.4971 36.784C53.4971 36.784 53.8256 37.3936 53.9665 37.2715C54.1074 37.1497 54.3892 36.8248 54.3892 36.8248C54.3892 36.8248 54.859 36.581 54.5306 35.7278C54.2019 34.8748 54.437 34.631 54.3431 34.3465C54.2491 34.0621 54.2492 33.8995 54.8129 33.534C55.3766 33.1685 56.7389 32.3559 57.0678 32.1935C57.3966 32.031 58.1481 31.5841 58.1481 31.5841C58.1481 31.5841 58.4299 31.4623 58.4771 31.1372C58.5242 30.8123 59.4167 30.2434 59.4639 30.081C59.5111 29.9186 60.1218 29.5125 60.1218 29.5125C60.1218 29.5125 60.7792 29.1872 60.7323 28.9843C60.6854 28.7813 61.5781 28.4158 61.7189 28.4158C61.8598 28.4158 62.6114 28.6186 62.6115 28.253C62.6116 27.8875 62.6116 27.8061 63.0814 27.4812C63.5511 27.1563 64.1618 26.6686 64.3968 26.6686C64.6315 26.6686 65.4302 26.3033 65.7589 26.2219C66.0878 26.1405 67.1213 25.7342 66.1817 26.2219C65.2421 26.7092 65.8528 26.425 65.6649 26.8312C65.4771 27.2373 65.3357 27.7656 66.2284 27.1561C67.1211 26.5468 67.074 26.4248 67.4029 26.3843C67.7317 26.3437 67.4967 26.5062 68.2013 26.3029C68.906 26.0999 68.953 26.0186 68.953 26.0186C68.953 26.0186 69.282 25.7748 69.094 25.6532C68.9062 25.5311 69.2821 25.3687 68.5773 25.6124C67.8727 25.8562 67.9197 25.8968 67.45 25.7748C66.9805 25.653 66.2758 25.6934 66.7926 25.2871C67.3094 24.881 67.967 24.759 67.5442 24.5966C67.1217 24.4342 66.0413 24.6374 65.9004 24.6778C65.7594 24.7184 65.4307 24.6372 65.1488 24.6778C64.8671 24.7185 64.9611 24.3531 65.1489 24.2717C65.3369 24.1903 65.9476 23.9465 66.6991 23.784C67.4506 23.6216 69.2826 23.581 69.7052 23.581C70.1277 23.581 70.6914 23.6624 71.0203 23.4591C71.349 23.2561 72.0069 22.9312 72.1008 22.7684C72.195 22.6059 72.5707 22.3623 72.5707 22.3623C72.5707 22.3623 72.9934 21.9966 72.7586 21.8342C72.5239 21.6717 72.2891 21.3061 72.1012 21.3873C71.9134 21.4685 72.0543 21.9562 71.6786 21.4279C71.303 20.9 71.3499 20.8186 71.1622 20.6967C70.9744 20.5749 70.7863 20.656 70.9276 20.0874C71.0686 19.5187 71.0217 19.2749 71.0217 19.2749C71.0217 19.2749 71.1627 18.7875 71.0219 18.7469C70.8808 18.7061 70.7872 18.5845 70.5524 18.7061C70.3174 18.828 69.0021 19.3969 68.7203 19.5187C68.4384 19.6406 68.0627 19.0312 68.2037 18.747C68.3448 18.4623 68.2507 18.6249 68.063 18.2188C67.8753 17.8126 67.1238 17.7312 66.8419 17.7312C66.56 17.7312 65.9028 17.3655 65.7147 17.6094C65.5268 17.853 64.5404 18.6248 64.3521 18.7062C64.1643 18.7876 63.8828 18.0157 63.7416 19.2749C63.6001 20.5346 64.2578 20.9 63.5063 20.9813C62.7548 21.0625 62.097 21.428 62.097 21.428C62.097 21.428 61.4866 21.4688 61.4865 21.7937C61.4864 22.1189 61.2514 22.8905 60.9692 22.9717C60.6875 23.0531 59.9828 22.9313 59.7481 22.6875C59.5135 22.4436 59.7954 21.55 59.7954 21.55L60.2183 21.1844C60.2183 21.1844 57.2124 20.7783 57.2592 20.6157C57.3064 20.4532 56.367 20.169 56.2732 19.9251C56.1794 19.6813 56.1324 19.1532 56.2265 18.9501C56.3205 18.7471 57.5889 17.7721 58.2465 17.569C58.9041 17.3658 60.0315 16.9191 60.3604 16.8377C60.6893 16.7564 61.2528 16.797 61.4408 16.594C61.6287 16.3908 61.6758 16.0253 61.6758 16.0253C61.6758 16.0253 61.582 15.4564 61.7698 15.5376C61.9576 15.619 62.2864 15.7408 62.3334 15.8626C62.3805 15.9845 62.3804 16.2689 62.7092 15.9437C63.0381 15.6188 63.4609 15.4968 63.8366 15.3345C64.2125 15.1719 64.7759 15.2127 65.105 15.0502C65.4338 14.8878 65.9974 14.7252 66.0445 14.3189C66.0916 13.9128 65.9037 14.0346 65.6688 13.9938C65.434 13.9534 65.7627 14.0346 64.9642 14.3595C64.1655 14.6844 64.4005 14.4407 63.8368 14.6844C63.2731 14.9282 63.2259 14.9688 63.1792 14.7658C63.1321 14.5626 63.2733 14.2377 63.2733 14.2377C63.2733 14.2377 63.3205 14.1969 62.9916 14.1159C62.6628 14.0346 62.6627 14.1565 62.6159 13.791C62.569 13.4253 62.8509 12.8972 62.3813 13.0597C61.9115 13.2221 61.489 12.9378 61.1599 13.7502C60.8308 14.5626 59.7033 15.416 59.4214 15.2127C59.1398 15.0097 59.0928 14.9689 58.8579 14.9689C58.6229 14.9689 58.2943 14.7252 57.8715 14.6846C57.4488 14.644 56.1804 14.644 55.8519 14.6847C55.5231 14.7255 55.1475 14.5222 54.8653 14.7661C54.5835 15.0097 54.1608 15.3348 54.1608 15.4568C54.1608 15.5786 53.7381 15.0097 53.5973 15.0505C53.4564 15.0911 53.0804 14.8881 52.6581 14.8881C52.2353 14.8881 51.9534 14.6849 51.8128 14.6849C51.6719 14.6849 51.9535 14.3598 51.8129 14.3192C51.672 14.2788 48.6187 14.1974 48.6187 14.1974C48.6187 14.1974 47.6326 13.8726 47.2569 13.9132C46.8811 13.9538 45.8479 13.9942 45.049 14.1162C44.2504 14.2381 43.0761 14.6444 42.7004 14.685C42.3246 14.7258 41.4792 14.7258 41.3384 14.5226C41.1974 14.3195 41.3854 14.3601 41.1974 14.3195C41.0096 14.2791 41.1507 14.1977 40.728 13.9134C40.3053 13.629 40.9162 13.3853 40.0706 13.3853C39.2253 13.3853 38.7086 13.3445 37.9571 13.3853C37.2055 13.426 35.6555 13.7509 35.4677 13.7102C35.2799 13.6696 33.7767 13.9135 33.5418 13.7917C33.3071 13.6697 32.1325 14.2384 31.8979 14.1978C31.6632 14.1572 30.7706 14.2386 30.5358 14.3604C30.3008 14.4824 29.1735 14.7259 29.5492 14.9291C29.9248 15.1322 29.8778 15.3352 29.9247 15.4573C29.9718 15.5791 29.549 15.8634 29.549 15.8634C29.549 15.8634 29.4549 15.8634 28.9384 15.7009C28.4218 15.5383 27.8582 15.4573 27.6232 15.5791C27.3884 15.7009 26.9655 15.945 27.0594 16.1074C27.1534 16.2698 27.8107 16.6355 27.9048 16.5135C27.9988 16.3917 28.2338 16.148 28.5155 16.1886C28.7974 16.2294 29.2203 16.0262 28.8443 16.4324C28.4684 16.8385 28.1394 17.0418 27.9047 17.0826C27.6699 17.123 27.1062 17.1636 26.5895 17.2044C26.0726 17.2452 26.1196 17.042 25.65 17.4483C25.1803 17.8544 24.9924 17.6107 24.8984 18.0576C24.8043 18.5043 24.7104 18.5043 24.8982 18.6263C25.086 18.7482 24.5223 18.7888 24.9451 18.9106C25.3676 19.0326 25.8843 19.1544 25.8373 19.2761C25.7901 19.3981 26.3071 19.1138 26.025 19.4385C25.743 19.7638 25.5553 20.0478 26.1189 19.723C26.6826 19.3981 27.0112 19.6415 27.481 19.4385C27.9508 19.2354 28.4205 19.1948 28.7023 19.0324C28.9843 18.8698 29.1252 18.6263 29.548 18.5041C29.9708 18.3822 29.6888 18.5449 29.7357 18.7479C29.7826 18.951 29.7357 18.9916 30.0176 18.829C30.2994 18.6665 30.2994 18.7885 30.6753 18.5853C31.0509 18.3822 31.4738 18.179 31.7557 18.3008C32.0373 18.4228 32.1313 18.4228 32.3193 18.4228C32.5071 18.4228 32.0845 18.382 32.5071 18.4228C32.9299 18.4633 32.3193 18.3008 33.7282 18.5853C35.1373 18.8695 35.5132 18.6665 35.6068 19.1133C35.7008 19.5602 35.8887 19.0726 36.1234 19.357C36.3581 19.6413 36.4992 19.3978 36.6399 19.8851C36.7807 20.3728 36.6394 21.7133 36.5455 21.8757C36.4515 22.0381 36.4046 22.0381 36.4514 22.4038C36.4983 22.7693 37.0614 24.5164 36.8735 24.6381C36.6857 24.7597 36.2629 24.8005 36.2629 24.8005L36.0279 25.5317C36.0279 25.5317 35.6521 26.141 35.3232 26.4661C34.9942 26.791 34.5715 27.1974 34.3364 27.4815C34.1016 27.766 33.9134 28.2537 33.5847 28.5379C33.2559 28.8222 32.9741 28.7004 33.0678 29.3097C33.1615 29.919 33.0674 30.569 33.1612 31.016C33.2552 31.4629 33.4898 32.0723 33.6775 32.3161C33.8652 32.5597 34.0063 32.5597 34.3349 32.7628C34.6637 32.9658 35.0864 33.2099 35.0392 33.4129C34.9922 33.616 35.0858 34.8756 35.0858 34.8756C35.0858 34.8756 35.3676 35.2817 35.4142 35.7286C35.4612 36.1756 35.7897 36.6223 35.7897 36.6223L36.0715 37.1506C36.0715 37.1506 36.2124 37.1914 36.4003 37.5161C36.588 37.8412 36.588 37.8412 36.6349 38.0034C36.682 38.1662 36.682 38.1254 36.682 38.1662C36.682 38.2067 36.6351 37.4755 36.5412 37.2723C36.4474 37.0692 36.4474 36.8256 36.3536 36.5817C36.2598 36.3379 36.4007 36.0534 36.1191 35.6879C35.8375 35.3225 35.8375 35.2817 35.6968 34.916C35.556 34.5505 35.3681 34.1442 35.5561 34.0628C35.744 33.9818 35.885 33.4537 36.2606 34.0628C36.6361 34.6722 36.6833 34.5099 36.7301 34.9974C36.7767 35.4849 36.9177 35.6475 37.0585 35.8504C37.1993 36.0534 37.5278 36.7443 37.7157 37.0284C37.9035 37.3129 37.7158 36.866 38.1382 37.4347C38.5608 38.0034 38.6079 38.1252 38.8426 38.5721C39.0772 39.019 39.2183 39.019 39.359 39.3439C39.4998 39.6691 39.4059 39.5877 39.3117 39.9532C39.2177 40.3187 39.4054 40.7252 39.4054 40.7252C39.4054 40.7252 40.0629 40.9282 40.1098 41.05C40.1567 41.1719 40.8142 41.3749 40.9082 41.5375C41.0021 41.7001 41.6126 41.903 41.6126 41.903C41.6126 41.903 42.1292 42.1874 42.3168 42.2687C42.5048 42.3499 43.0686 42.4313 43.0686 42.4313C43.0686 42.4313 43.4442 42.5127 43.5851 42.5531C43.7259 42.5937 44.1487 42.5937 44.1487 42.5937C44.1487 42.5937 44.5246 42.35 44.6654 42.4313C44.8063 42.5123 45.1352 42.2686 45.276 42.4717C45.4168 42.6749 45.6987 42.6749 45.8396 42.8375C45.9804 43 46.1212 43 46.3561 43.203C46.5911 43.4061 46.8258 43.3654 47.0605 43.5279C47.2953 43.6903 47.4831 43.6903 47.765 43.6903C48.0467 43.6903 48.0467 43.6903 48.2347 43.7311C48.4223 43.7717 48.5165 43.6091 48.7042 43.8125C48.892 44.0155 49.0328 44.1374 49.1736 44.3404C49.3144 44.5435 49.6433 44.5435 49.6901 44.8685C49.737 45.1934 49.8309 45.1531 49.8308 45.4372C49.8307 45.7217 50.0185 45.8435 50.1596 45.9249C50.3002 46.006 50.8167 46.412 50.8167 46.412L51.5212 46.534L52.0847 46.8997L52.6794 47.0621L52.6959 47.0616Z" fill="#B2B2B2"/>
<path d="M67.7633 9.3209L70.5817 9.01655C70.5817 9.01655 71.5679 9.01664 72.0614 8.71209C72.5547 8.40753 72.0616 8.40749 73.5412 8.16402C75.0209 7.92036 74.5984 7.79852 75.3734 7.9204C76.1482 8.04245 76.3596 8.04247 77.2051 8.16434C78.0504 8.28622 78.2619 8.10362 79.0366 8.28631C79.8116 8.46917 80.1639 8.40821 80.798 8.40826L82.7707 8.40844C83.7571 8.40853 84.6733 7.92122 85.0254 8.22585C85.3775 8.53047 85.589 8.40869 86.7867 8.5306C87.9843 8.6525 88.4777 8.40876 88.9708 8.53079C89.4641 8.65264 90.3097 8.4701 91.2959 8.531C92.2821 8.59189 92.7755 8.47032 93.1278 8.47035C93.48 8.47038 93.8323 8.04383 94.3254 8.40946C94.8186 8.77509 95.4528 8.28776 95.5229 8.77515C95.5932 9.26255 96.5093 8.89704 95.5932 9.26255C94.6771 9.62806 94.818 9.56708 94.1835 10.0544C93.5493 10.5417 94.6059 10.9682 93.267 11.3947C91.928 11.821 91.717 11.1508 91.3644 11.8819C91.0117 12.6129 91.3639 12.7957 91.2934 13.1613C91.2227 13.5267 91.0818 13.5877 90.6588 13.8922C90.2361 14.1968 90.2363 13.8922 89.2497 14.0749C88.2632 14.2576 87.5586 14.4403 87.136 14.4403C86.7132 14.4402 85.7972 14.7448 85.5152 14.8665C85.2332 14.9885 86.0083 15.1712 84.5284 15.5366C83.0486 15.9021 82.6962 15.8412 82.2734 16.3284C81.8503 16.816 81.9912 16.877 81.7093 17.1815C81.4272 17.4861 80.5812 18.7046 80.1586 18.4C79.7362 18.0953 79.5245 18.1561 79.1724 17.8515C78.8203 17.5469 78.6091 17.1204 78.3979 16.8766C78.1866 16.6328 78.1164 16.0236 78.0462 15.658C77.9761 15.2924 77.3421 14.4396 78.0468 14.5615C78.7512 14.6833 79.1741 14.6226 79.3855 14.5008C79.597 14.3788 79.8086 13.9524 79.8086 13.9524C79.8086 13.9524 79.7386 13.2822 79.5272 12.9166C79.316 12.551 79.4572 12.2464 79.1051 11.881C78.753 11.5154 78.753 11.5764 78.2599 11.2108C77.7669 10.8451 77.9079 10.6623 77.1329 10.6015C76.3579 10.5406 76.1466 10.3576 75.8646 10.4186C75.5829 10.4793 74.6672 9.99187 75.6535 9.93115C76.6399 9.87024 77.5558 9.99213 77.5558 9.99213C77.5558 9.99213 78.8242 9.50485 78.4016 9.444C77.9791 9.38297 79.0359 8.83469 78.0496 9.01739C77.0631 9.2001 75.9358 9.44378 75.6539 9.50457C75.3721 9.56535 74.6674 9.62628 73.9628 9.80902C73.2584 9.99175 72.4126 9.93086 71.9898 10.3572C71.5668 10.7836 71.9896 10.8446 71.5668 10.7836C71.1443 10.7227 71.9193 10.3572 70.9328 10.7835C69.9462 11.21 70.2281 11.149 69.7351 11.0272C69.2418 10.9054 68.8897 10.7225 68.8897 10.7225C68.8897 10.7225 69.5241 10.6616 68.608 10.6007C67.6921 10.5398 67.6921 10.5398 67.3401 10.174C66.988 9.8084 67.1994 9.80842 67.4106 9.68663C67.6194 9.56467 67.7614 9.3209 67.7614 9.3209L67.7633 9.3209Z" fill="#B2B2B2"/>
<path d="M66.2093 12.0635C65.857 12.3682 65.0113 12.7949 65.2228 12.9777C65.4342 13.1605 65.5749 13.8308 65.9977 13.648C66.4203 13.4652 65.9274 12.8558 67.5476 13.3433C69.1681 13.8308 69.0272 13.2825 69.3792 14.0136C69.7313 14.7448 70.0128 15.2931 69.8014 15.4761C69.5902 15.6589 69.5196 15.8418 68.8148 16.0246C68.1103 16.2075 67.8283 16.4513 68.3215 16.7558C68.8145 17.0604 69.7305 17.3651 70.1531 17.5481C70.5758 17.7307 71.8439 17.7919 71.2099 17.1826C70.5759 16.5733 71.351 16.3902 71.351 16.3902C71.351 16.3902 72.5486 17.1826 72.1263 16.2684C71.7037 15.3544 71.4218 15.3544 71.7037 15.3544C71.9857 15.3544 72.549 15.6591 72.549 15.6591L72.8311 15.1716L72.5494 14.3794L71.6337 13.5873C71.6337 13.5873 72.4087 12.9779 71.352 12.8561C70.2953 12.7343 70.3656 12.7343 69.802 12.4295C69.2385 12.1248 69.1682 12.003 68.1112 12.1858C67.0544 12.3687 66.7021 12.4905 66.7021 12.4905L66.2118 12.0635L66.2093 12.0635Z" fill="#B2B2B2"/>
<path d="M50.4942 12.7944C50.9172 12.4289 52.045 11.5763 52.4677 11.8199C52.8901 12.0636 53.5243 11.6373 54.0175 12.0029C54.5104 12.3685 55.0738 12.7949 55.4965 12.9167C55.9192 13.0386 56.4126 12.6123 56.8353 12.7951C57.2578 12.9779 58.7379 11.8816 58.4558 12.7345C58.1733 13.5873 58.8074 13.831 58.0323 13.8919C57.2572 13.9528 56.4116 14.44 56.0592 14.2572C55.7071 14.0744 55.4252 13.8916 54.8614 14.1353C54.2976 14.3788 54.5796 14.3788 53.9455 14.257C53.3115 14.1351 53.1705 14.3787 53.0298 14.1959C52.8888 14.0133 52.4662 14.074 52.5368 13.5257C52.6075 12.9776 52.8188 13.0384 52.396 13.0384C51.9734 13.0383 51.6211 13.0993 51.3393 12.9165C51.0598 12.7337 50.4963 12.7944 50.4963 12.7944L50.4942 12.7944Z" fill="#B2B2B2"/>
<path d="M173.378 31.2417C173.471 31.899 174.354 33.0175 174.21 31.691C174.144 31.4488 173.865 30.9791 173.378 31.2416" fill="#B2B2B2"/>
<path d="M173.782 31.1224C175.179 31.1612 175.559 32.269 176.95 32.04C178.008 31.866 176.913 30.2618 177.021 29.551C176.748 28.8118 175.838 28.2975 176.388 29.3632C176.464 30.2735 175.538 31.5673 174.2 30.6264C173.886 30.6801 173.838 30.9524 173.782 31.1223" fill="#B2B2B2"/>
<path d="M174.462 31.602C174.733 32.9108 175.891 30.9257 174.462 31.602V31.602Z" fill="#B2B2B2"/>
<path d="M175.126 31.455C175.043 31.2853 175.066 31.5681 175.126 31.455V31.455Z" fill="#B2B2B2"/>
<path d="M175.82 27.7893C176.719 28.2547 177.458 28.1467 177.394 27.7098C177.329 27.2729 176.46 26.5071 176.079 26.3664" fill="#B2B2B2"/>
<path d="M175.38 31.5628C175.064 31.6528 175.665 31.7408 175.38 31.5628V31.5628Z" fill="#B2B2B2"/>
<path d="M6.88477 8.39453H4.14258V16H3.02344V8.39453H0.287109V7.46875H6.88477V8.39453ZM14.707 16H13.5762V12.0566H9.27539V16H8.15039V7.46875H9.27539V11.1367H13.5762V7.46875H14.707V16ZM21.5273 12.0566H17.8301V15.0801H22.125V16H16.7051V7.46875H22.0664V8.39453H17.8301V11.1367H21.5273V12.0566Z" fill="#FF1616"/>
<g filter="url(#filter0_d)">
<path d="M178.293 63.001C182.652 63.001 186.735 62.1758 190.544 60.5254C194.353 58.9173 197.653 56.6956 200.446 53.8604C203.282 51.0674 205.503 47.7666 207.111 43.958C208.719 40.1917 209.523 36.1715 209.523 31.8975C209.523 27.5811 208.719 23.5186 207.111 19.71C205.503 15.9437 203.282 12.6429 200.446 9.80762C197.653 7.01465 194.353 4.79297 190.544 3.14258C186.735 1.53451 182.652 0.730469 178.293 0.730469C174.019 0.730469 169.999 1.53451 166.232 3.14258C162.508 4.79297 159.25 7.01465 156.457 9.80762C153.664 12.6429 151.442 15.9437 149.792 19.71C148.184 23.5186 147.38 27.5811 147.38 31.8975C147.38 36.1715 148.184 40.1917 149.792 43.958C151.442 47.7666 153.664 51.0674 156.457 53.8604C159.25 56.6956 162.508 58.9173 166.232 60.5254C169.999 62.1758 174.019 63.001 178.293 63.001ZM178.166 57.2246C174.865 57.2246 172.072 56.5898 169.787 55.3203C167.544 54.0508 165.725 52.2734 164.328 49.9883C162.932 47.7031 161.916 44.9948 161.281 41.8633C160.689 38.7318 160.393 35.3252 160.393 31.6436C160.393 28.0042 160.71 24.64 161.345 21.5508C161.979 18.4616 162.995 15.7744 164.392 13.4893C165.788 11.2464 167.608 9.49023 169.851 8.2207C172.136 6.95117 174.908 6.31641 178.166 6.31641C181.424 6.31641 184.196 6.95117 186.481 8.2207C188.767 9.49023 190.629 11.2464 192.067 13.4893C193.549 15.7744 194.606 18.4616 195.241 21.5508C195.918 24.64 196.257 28.0042 196.257 31.6436C196.257 35.3252 195.918 38.7318 195.241 41.8633C194.606 44.9948 193.549 47.7031 192.067 49.9883C190.629 52.2734 188.767 54.0508 186.481 55.3203C184.196 56.5898 181.424 57.2246 178.166 57.2246Z" fill="#FF1616"/>
</g>
<path d="M16.6562 45.5391L24.3906 19.875H32.2188L20.3359 54H13L1.16406 19.875H8.96875L16.6562 45.5391ZM63.2266 54H56.1953V39.375H42.4844V54H35.4531V19.875H42.4844V33.7031H56.1953V19.875H63.2266V54ZM76.8672 54H69.8359V19.875H76.8672V54Z" fill="white"/>
<path d="M111.156 54H104.125L90.4375 31.5469V54H83.4062V19.875H90.4375L104.148 42.375V19.875H111.156V54ZM128.406 35.25L135.508 19.875H143.195L131.992 41.625V54H124.844V41.625L113.641 19.875H121.352L128.406 35.25Z" fill="#FF1616"/>
<defs>
<filter id="filter0_d" x="143.38" y="0.730469" width="70.1436" height="70.2705" filterUnits="userSpaceOnUse" color-interpolation-filters="sRGB">
<feFlood flood-opacity="0" result="BackgroundImageFix"/>
<feColorMatrix in="SourceAlpha" type="matrix" values="0 0 0 0 0 0 0 0 0 0 0 0 0 0 0 0 0 0 127 0"/>
<feOffset dy="4"/>
<feGaussianBlur stdDeviation="2"/>
<feColorMatrix type="matrix" values="0 0 0 0 0 0 0 0 0 0 0 0 0 0 0 0 0 0 0.25 0"/>
<feBlend mode="normal" in2="BackgroundImageFix" result="effect1_dropShadow"/>
<feBlend mode="normal" in="SourceGraphic" in2="effect1_dropShadow" result="shape"/>
</filter>
</defs>
</svg>
